<?xml version="1.0" encoding="UTF-8"?>
<!-- Generator: Adobe Illustrator 15.0.0, SVG Export Plug-In . SVG Version: 6.00 Build 0)  -->
<!DOCTYPE svg PUBLIC "-//W3C//DTD SVG 1.1//EN" "http://www.w3.org/Graphics/SVG/1.1/DTD/svg11.dtd">
<svg version="1.1" id="Layer_1" xmlns="http://www.w3.org/2000/svg" xmlns:xlink="http://www.w3.org/1999/xlink" x="0px" y="0px" width="841.89px" height="595.28px" viewBox="0 0 841.89 595.28" enable-background="new 0 0 841.89 595.28" xml:space="preserve">
<g>
	<path fill-rule="evenodd" clip-rule="evenodd" fill="#C9D344" d="M530.102,129.343l-5.002,1.681   c2.456,1.491,4.646,3.046,6.518,4.667c18.716,16.231,27.318,56.811,19.817,82.325c-22.575,77.003-194.6,51.855-209.997,137.856   c-21.472-2.436-32.07-15.69-35.347-36.226C193.47,333.058,76.568,350.735,30.86,297.446l-9.072,3.047   c11.525,13.079,26.625,23.628,42.151,29.117c55.375,19.629,144.544,6.966,227.003-1.679c20.725,6.574,19.609,34.888,47.135,34.665   c17.468-5.891,12.376-25.593,20.359-37.281c85.13-46.17,236.372-49.63,199.764-161.675   C553.401,148.927,543.544,137.816,530.102,129.343z"/>
	<path fill="#C9D344" d="M530.102,129.343l-0.808-2.395l-4.992,1.679l-5.149,1.735l4.637,2.816c2.364,1.433,4.438,2.913,6.179,4.421   c6.589,5.7,12.081,14.961,15.83,25.641c3.758,10.675,5.812,22.745,5.812,33.978c0,7.252-0.851,14.151-2.602,20.088   c-5.372,18.325-19.626,30.703-38.877,40.39c-28.835,14.506-68.356,22.388-102.296,34.696   c-16.977,6.171-32.589,13.467-44.835,23.468c-12.23,9.979-21.06,22.803-24.048,39.563l2.487,0.449l0.281-2.507   c-10.284-1.182-17.62-4.841-22.929-10.536c-5.295-5.704-8.62-13.635-10.211-23.586l-0.381-2.393l-2.413,0.291   c-54.38,6.48-109.684,13.929-157.29,13.921c-25.515,0.008-48.808-2.142-68.513-7.642c-19.725-5.5-35.806-14.317-47.213-27.617   l-1.107-1.29l-14.277,4.798l2.51,2.852c11.803,13.386,27.213,24.159,43.204,29.827c21.979,7.778,48.883,10.521,78.419,10.528   c46.394-0.007,99.338-6.805,149.685-12.084l-0.259-2.504l-0.771,2.405c4.651,1.474,8.047,4.119,11.104,7.465   c4.58,5.014,8.133,11.645,13.308,17.269c5.135,5.639,12.3,10.106,23.174,10.054h0.319h0.412l0.393-0.137   c4.807-1.605,8.278-4.313,10.655-7.562c3.568-4.883,4.805-10.706,6.02-16.193c1.184-5.511,2.352-10.7,4.965-14.491l-2.084-1.426   l1.199,2.217c37.648-20.442,88.937-32.57,131.019-49.773c21.047-8.622,39.84-18.523,53.527-31.64   c13.688-13.091,22.177-29.601,22.147-50.636c-0.004-9.851-1.841-20.671-5.727-32.628c-5.005-15.343-15.346-26.955-29.159-35.647   l-1.014-0.64l-1.136,0.381L530.102,129.343l-1.346,2.135c13.079,8.261,22.441,18.869,27.043,32.946   c3.767,11.547,5.479,21.838,5.479,31.059c-0.027,19.664-7.684,34.566-20.588,46.993c-19.363,18.618-50.796,31.12-84.603,42.671   c-33.801,11.579-69.926,22.273-98.854,37.951l-0.541,0.288l-0.341,0.501c-4.464,6.643-5.103,14.767-6.971,21.592   c-0.918,3.419-2.084,6.488-3.904,8.957c-1.836,2.465-4.277,4.43-8.205,5.773l0.805,2.387v-2.521h-0.319   c-6.376-0.015-10.805-1.598-14.479-4.06c-5.486-3.687-9.236-9.687-13.585-15.722c-4.323-5.977-9.444-12.061-17.995-14.769   l-0.5-0.159l-0.523,0.059c-50.415,5.286-103.244,12.054-149.159,12.046c-29.217,0.008-55.637-2.755-76.734-10.238   c-15.054-5.322-29.859-15.636-41.101-28.404l-1.894,1.665l0.805,2.394l9.068-3.049l-0.801-2.392l-1.922,1.642   c12.242,14.266,29.324,23.52,49.69,29.196c20.368,5.681,44.074,7.821,69.866,7.826c48.119-0.005,103.546-7.49,157.888-13.965   l-0.292-2.498l-2.495,0.396c1.695,10.593,5.31,19.551,11.499,26.221c6.179,6.675,14.867,10.859,26.052,12.112l2.35,0.267   l0.422-2.326c3.711-20.619,16.635-34.495,34.929-45.261c27.408-16.116,66.536-24.433,101.069-35.863   c17.284-5.731,33.438-12.264,46.493-21.146c13.041-8.861,23.023-20.207,27.444-35.318c1.908-6.517,2.8-13.862,2.8-21.511   c-0.006-11.845-2.141-24.401-6.101-35.652c-3.969-11.249-9.731-21.215-17.289-27.783c-2.001-1.738-4.308-3.362-6.854-4.919   l-1.312,2.16l0.802,2.391l5.002-1.677L530.102,129.343l-1.346,2.135L530.102,129.343z"/>
</g>
<g>
	<path fill="#1C9CD4" stroke="#1C9CD4" stroke-width="0.5" stroke-miterlimit="10" d="M137.945,188.045l1.22,9.048   c-4.752,8.292-12.542,18.684-23.345,31.17c-14.387,16.621-27.839,28.755-40.383,36.423c-25.229,15.427-42.091,16.189-50.593,2.294   c-5.033-8.249-5.23-18.935-0.544-32.063l4.786,7.839c-3.953,9.378-5.081,15.45-3.396,18.223c1.945,3.183,6.85,4.565,14.706,4.141   c10.018-0.519,21.288-4.616,33.825-12.279c11.443-7,23.17-16.682,35.2-29.061C120.575,212.226,130.095,200.309,137.945,188.045z    M60.337,208.467c2.369,3.868,1.642,6.972-2.172,9.304c-1.617,0.983-3.337,1.268-5.153,0.828c-1.806-0.436-3.2-1.465-4.187-3.082   c-2.327-3.817-1.574-6.899,2.301-9.264c1.566-0.961,3.252-1.224,5.056-0.785C57.996,205.904,59.378,206.905,60.337,208.467z    M76.478,198.602c2.365,3.868,1.634,6.964-2.163,9.297c-1.628,0.986-3.35,1.274-5.15,0.835c-1.814-0.443-3.212-1.47-4.206-3.089   c-2.333-3.809-1.566-6.904,2.304-9.267c1.567-0.951,3.256-1.211,5.063-0.783C74.137,196.037,75.518,197.039,76.478,198.602z"/>
	<path fill="#1C9CD4" stroke="#1C9CD4" stroke-width="0.5" stroke-miterlimit="10" d="M168.694,173.491   c7.932,15.273,11.576,27.214,10.935,35.819c-0.256,3.234-2.084,7.741-5.498,13.513l-7.403-5.469   c6.291-6.237,9.02-12.267,8.194-18.119c-0.492-3.327-4.108-10.568-10.852-21.698l-40.914-67.224l13.319,2.916   C149.546,137.211,160.287,157.299,168.694,173.491z"/>
	<path fill="#1C9CD4" stroke="#1C9CD4" stroke-width="0.5" stroke-miterlimit="10" d="M229,180.807l-1.011,0.464   c-7.173,3.324-13.791,2.144-19.866-3.542c2.65,5.714,4.181,13.381,4.588,22.983c0.31,7.35,0.061,12.862-0.738,16.534   l-12.524,10.982c6.248-23.217,4.127-46.117-6.357-68.728c-2.243-4.833-4.517-9.146-6.816-12.941l5.114-8.846   c7.81,18.445,13.865,28.966,18.18,31.551c5.681,3.379,10.358,4.21,14.021,2.507l0.997-0.462L229,180.807z"/>
	<path fill="#1C9CD4" stroke="#1C9CD4" stroke-width="0.5" stroke-miterlimit="10" d="M297.724,155.665l-1.037,0.377   c-11.249,4.012-22.547,1.671-33.903-7.02c-0.581,6.962-6.5,14.316-17.784,22.042c-6.885,4.738-13.448,8.213-19.685,10.435   l-1.034,0.366l-3.521-9.854l1.04-0.371c6.057-2.161,13.283-5.682,21.687-10.565c11.169-6.581,16.152-11.58,14.928-14.978   c-1.151-3.23-5.879-7.561-14.185-12.977c-11.696-7.662-25.064-11.572-40.073-11.744l-3.063-8.848l38.019-39.121l2.949,8.181   l-28.898,29.986c11.227,1.061,21.705,4.631,31.413,10.716c5.039,3.204,10.094,7.639,15.18,13.301   c7.011,7.82,11.399,12.558,13.161,14.207c4.734,0.707,11.489-0.496,20.246-3.629l1.044-0.353L297.724,155.665z"/>
	<path fill="#1C9CD4" stroke="#1C9CD4" stroke-width="0.5" stroke-miterlimit="10" d="M391.282,139.234l-1.17,0.224   c-4.22,0.757-8.588,0.238-13.075-1.563c-4.893-1.919-8.141-4.753-9.754-8.504c-0.104,2.823-0.81,5.682-2.08,8.591   c-1.894,4.32-4.707,6.826-8.455,7.504c-3.551,0.642-7.007-0.043-10.391-2.045c-3.393-1.999-5.836-4.663-7.385-7.993   c0.01,3.11-0.839,6.179-2.523,9.228c-2.116,3.799-4.882,6.018-8.313,6.632c-8.2,1.48-14.66-2.574-19.384-12.159   c-1.209,4.317-3.283,8.138-6.232,11.471c-3.251,3.707-6.894,5.913-10.928,6.647l-1.083,0.19l-1.858-10.301l1.077-0.197   c4.162-0.752,7.849-3.184,11.042-7.313c3.208-4.123,4.439-8.238,3.702-12.334c-2.564-14.158-4.926-24.277-7.076-30.354   l10.125,5.444c0.523,2.837,1.128,7.108,1.848,12.826c0.731,5.717,1.354,9.996,1.857,12.825c1.178,6.511,2.359,10.427,3.54,11.778   c2.413,2.732,5.711,3.719,9.859,2.963c3.982-0.705,6.797-2.902,8.433-6.575c1.469-3.198,1.824-6.892,1.081-11.061   c-0.383-2.117-3.36-13.192-8.909-33.238l9.74,5.354l5.153,28.488c1.592,8.772,5.278,12.631,11.054,11.587   c9.231-1.667,12.908-7.565,11.083-17.687c-0.785-4.335-3.695-15.295-8.743-32.86l10.5,5.935   c2.124,11.753,3.684,19.538,4.688,23.328c1.404,5.351,3.088,8.84,5.065,10.475c3.505,2.852,8.329,3.723,14.468,2.607l1.184-0.208   L391.282,139.234z"/>
	<path fill="#1C9CD4" stroke="#1C9CD4" stroke-width="0.5" stroke-miterlimit="10" d="M447.514,134.045l-1.096,0.12   c-10.602,1.101-19.687-2.258-27.282-10.082c-8.964,9.549-19.391,14.953-31.271,16.188l-1.094,0.122l-1.091-10.419l1.098-0.108   c10.96-1.142,20.207-4.576,27.74-10.292c-5.333-7.381-8.556-11.752-9.679-13.113c-6.399-7.644-12.099-11.205-17.096-10.673   c-0.548,0.051-1.063,0.13-1.538,0.246l-1.091-10.417c9.675-2.178,17.086-3.54,22.201-4.072c17.291-1.809,26.983-0.66,29.072,3.427   c0.303,0.583,0.519,1.39,0.626,2.427c0.39,3.723-0.395,8.296-2.348,13.737c-2.435,6.772-6.121,12.768-11.061,17.949   c5.288,4.077,12.521,5.625,21.738,4.659l1.078-0.114L447.514,134.045z M431.54,90.654c-1.186-1.295-5.767-1.519-13.746-0.69   c-6.021,0.625-12.055,1.569-18.076,2.816c2.132,1.555,5.024,4.795,8.67,9.71c4.436,5.938,8.073,10.395,10.902,13.362   c4.384-3.48,7.759-7.982,10.14-13.528c1.888-4.381,2.683-7.911,2.397-10.596C431.773,91.18,431.681,90.82,431.54,90.654z"/>
	<path fill="#1C9CD4" stroke="#1C9CD4" stroke-width="0.5" stroke-miterlimit="10" d="M503.057,118.055   c-1.906,10.421-7.058,15.652-15.438,15.691c-5.079,0.035-9.838-2.239-14.28-6.811c-2.023-2.125-4.521-5.726-7.494-10.788   c-0.155,4.958-2.763,9.233-7.826,12.811c-4.64,3.323-9.526,5.013-14.661,5.037L442.242,134l-0.052-10.471h1.104   c4.598-0.029,8.655-1.001,12.195-2.913c4.339-2.289,6.493-5.555,6.464-9.771c0-0.8-0.065-1.53-0.186-2.208   c-0.896-4.831-1.343-9.146-1.37-12.946c-0.059-11.508,3.539-18.602,10.815-21.274c1.037-0.371,2.177-0.562,3.402-0.562   c5.567-0.036,10.879,2.665,15.926,8.081c8.439,9.015,12.696,19.796,12.76,32.348C503.317,115.809,503.237,117.068,503.057,118.055z    M483.582,84.454c-3.634-4.27-6.871-6.395-9.68-6.374c-4.404,0.022-6.592,3.978-6.55,11.883c0.021,5.077,1.348,10.892,3.95,17.427   c5.715,14.359,11.695,21.517,17.942,21.481c0.485,0,1.057-0.096,1.741-0.281c3.185-0.878,4.748-4.809,4.71-11.784   C495.625,104.56,491.593,93.78,483.582,84.454z"/>
</g>
<g>
	<g>
		<path fill-rule="evenodd" clip-rule="evenodd" d="M814.107,241.708c-0.613,4.225-2.601,7.08-5.37,9.138    c-3.106,0.065-4.045-2.045-6.45-2.686c-0.861,0.93-2.006,1.578-3.223,2.155c0.438,2.609,2.979,3.11,4.839,4.291    c7.259,1.145,15.318-2.953,19.88,0.541c-0.006,10.923-12.698,9.156-21.496,11.288c-3.578,1.314-6.126,6.312-10.742,4.833    c-1.48-2.439,1.355-4.555,1.607-6.989c-0.915-4.839-5.439-4.252-5.909-8.592c-0.44-4.067,3.718-7.258,6.986-10.748    c3.23-3.452,6.422-6.729,9.138-8.055c2.134-0.899,3.847-0.629,5.906,0C811.28,238.101,813.085,239.517,814.107,241.708z"/>
		<path fill-rule="evenodd" clip-rule="evenodd" d="M810.885,269.66c6.097-0.874,5.914,6.191,5.914,13.967c0,18.97,0,39.11,0,56.954    c0,13.234-0.025,25.503-1.614,36.54c-1.698,11.823-3.979,22.131-8.597,29.55c-1.711,1.524-1.954,4.501-5.372,4.3    c-2.551-0.135-1.318-4.064-1.616-6.44c-0.33-38.365,0.867-78.243-1.07-114.991C801.94,282.203,804.835,274.352,810.885,269.66z"/>
		<path fill-rule="evenodd" clip-rule="evenodd" d="M704.498,315.327c-1.497,3.514-4.468,5.563-6.458,8.595    c-2.385,2.632-4.52,5.508-6.979,8.065c-5.45-3.69-11.149-7.117-15.586-11.819c3.045-6.453,7.684-11.315,11.828-16.66    C693.342,307.14,699.106,311.049,704.498,315.327z"/>
		<path fill-rule="evenodd" clip-rule="evenodd" d="M603.474,380.888c2.189,1.793,5.364,3.561,8.597,4.833    c3.009,1.188,6.725,2.33,10.215,2.685c9.663,0.991,19.339-2.576,26.321-5.374c5.183-2.345,7.892-7.161,12.896-9.67    c7.688,2.346,14.129,5.936,22.57,7.526c2.244-0.267,3.086-2.156,4.637-3.767c8.529-8.128,15.886-16.555,25.458-23.642    c10.792-8.188,21.23-16.744,35.999-20.959c7.553-0.767,11.776,1.377,17.734,4.299c3.486,1.718,7.207,3.353,9.665,5.374    c2.765,2.271,7.064,7.318,7.526,10.213c0.833,5.167-2.536,12.451-4.296,16.654c-2.06,4.914-4.969,9.742-7.089,14.393    c-3.119,2.987-6.46,5.565-10.646,8.179c-0.94,0.588-2.151,1.006-3.218,1.61c-6.771,3.827-15.086,7.081-24.19,9.676    c-8.962,2.553-17.246,4.169-29.546,4.299c-9.131,0.088-17.205,0.155-25.263-1.62c-2.485,0.38-2.922,2.688-4.299,4.299    c-1.718,1.915-3.011,5.257-4.831,7.52c-1.819,2.275-2.661,4.616-7.521,3.231c-0.697-3.155,1.461-6.188,2.686-9.13    c1.278-3.095,2.445-6.323,3.76-9.143c0.01-1.795-4.506-4.088-5.372-4.833c-1.833-1.388-3.533-2.907-5.372-4.299    c-2.916,3.086-5.364,5.771-9.132,8.597c-5.226,3.917-14.179,7.905-23.107,8.599c-18.089,1.394-36.126-7.684-47.821-15.05    c-30.211,11.006-81.983,23.718-119.829,10.209c-4.942-1.762-8.729-3.427-13.436-6.445c-3.957-3.22-4.755-4.304-6.98-7.52    c-0.132-0.193-3.99-6.424-4.832-8.601c-1.55-3.986-2.975-10.914-2.154-18.271c0.469-4.213,2.387-9.138,4.3-12.897    c1.06-2.078,2.577-4.728,4.301-6.982c0.79-1.033,1.537-1.994,2.461-3.002c1.503-1.636,3.384-4.782,6.136-3.447    c-1.605,6.926-3.932,11.584-3.771,19.348c0.237,10.819,5.028,17.464,12.363,22.029c0.373,0.231,6.004,3.023,8.062,3.767    c1.047,0.373,2.105,0.726,3.224,1.072c11.757,3.535,29.781,5.12,45.677,3.758c19.859-1.702,39.292-6.955,52.116-10.207    c2.209-11.051,4.096-22.703,7.932-31.239c2.154-5.063,4.784-9.229,7.658-12.822c2.84-3.564,6.218-6.783,10.744-8.605    c2.887-0.884,6.696-0.518,9.669,0c1.816,0.611,5.733,3.63,6.986,5.381c2.646,3.687,5.297,9.514,5.91,16.123    c0.875,9.346-1.676,19.732-5.37,25.248C609.081,375.148,606.238,378.677,603.474,380.888z M593.805,366.915    c0.453-0.433,2.137-1.241,2.688-1.612c0.963-0.655,3.514-2.574,3.757-2.688c0.856-0.386,1.455-1.81,1.612-2.683    c0.361-1.981-0.615-3.552-1.072-4.3c-1.113-1.807-2.841-4.715-4.297-5.911c-0.215-0.177-1.979-2.405-3.76-1.614    c-5.247,2.637-8.324,7.439-10.753,12.898c2.244,2.955,3.566,6.824,7.525,8.055C590.567,368.363,593.307,367.396,593.805,366.915z     M758.227,359.933c-2.217-1.272-4.689-1.998-6.986-2.693c-1.855-0.821-4.891-0.473-7.521-0.533    c-7.948,3.331-15.205,7.362-21.494,12.354c-2.91,1.461-5.797,3.338-8.058,4.839c-1.862,1.234-3.356,2.659-4.833,3.76    c-2.681,1.99-5.632,2.951-7.525,5.372c26.356,2.12,46.574-6.403,63.944-15.042C764.977,363.972,760.836,361.415,758.227,359.933z"/>
	</g>
</g>
<g>
	<path fill="#1E1E1C" d="M55.76,509.878h-6.698l-2.837-8.319H29.887l-2.838,8.319h-6.697l15.18-41.394h5.048L55.76,509.878z    M44.468,496.223L38.2,477.854l-6.442,18.369H44.468z"/>
	<path fill="#1E1E1C" d="M81.624,482.864l-4.486,4.474c-0.68-0.701-1.332-1.202-1.958-1.505c-0.624-0.303-1.437-0.451-2.441-0.451   c-1.062,0-2.042,0.271-2.938,0.816c-0.901,0.552-1.613,1.32-2.146,2.313c-0.529,0.988-0.792,2.147-0.792,3.475v17.892h-5.935   V480.41h5.818v3.199c0.779-1.089,1.874-1.954,3.281-2.601c1.412-0.643,2.926-0.97,4.554-0.97c1.458,0,2.741,0.216,3.849,0.645   C79.535,481.111,80.604,481.838,81.624,482.864z"/>
	<path fill="#1E1E1C" d="M108.14,509.878h-5.82v-2.666c-1.08,1.077-2.207,1.852-3.381,2.312c-1.169,0.464-2.657,0.697-4.454,0.697   c-1.781,0-3.327-0.225-4.63-0.672c-1.304-0.439-2.401-1.11-3.294-1.997c-1.552-1.605-2.325-3.724-2.325-6.329   c0-1.689,0.387-3.166,1.162-4.448c0.778-1.274,1.927-2.271,3.453-2.977c1.519-0.71,3.37-1.066,5.548-1.066h7.806v-2.098   c0-1.881-0.508-3.269-1.533-4.154c-1.023-0.89-2.661-1.327-4.908-1.327c-1.649,0-2.935,0.204-3.852,0.622   c-0.918,0.413-1.793,1.15-2.625,2.204l-3.889-3.655c1.343-1.6,2.819-2.71,4.433-3.34c1.606-0.632,3.658-0.944,6.156-0.944   c8.101,0,12.154,3.38,12.154,10.138V509.878z M102.205,499.232v-2.383h-6.927c-1.722,0-3.036,0.363-3.932,1.103   c-0.896,0.741-1.35,1.791-1.35,3.155c0,2.781,1.796,4.171,5.396,4.171c1.268,0,2.33-0.106,3.179-0.321   c0.852-0.218,1.635-0.678,2.355-1.354C101.78,502.751,102.205,501.292,102.205,499.232z"/>
	<path fill="#1E1E1C" d="M141.383,495.114c0,1.855-0.076,3.503-0.223,4.939c-0.155,1.442-0.479,2.836-0.979,4.173   c-0.505,1.344-1.21,2.474-2.117,3.385c-0.795,0.795-1.825,1.423-3.096,1.897c-1.267,0.479-2.64,0.712-4.116,0.712   c-1.668,0-3.111-0.257-4.332-0.765c-1.216-0.517-2.366-1.428-3.45-2.729v3.15h-5.818v-41.394h5.935v14.896   c1.022-1.222,2.152-2.08,3.392-2.586c1.242-0.504,2.687-0.756,4.328-0.756c1.459,0,2.816,0.237,4.08,0.714   c1.256,0.47,2.283,1.114,3.078,1.925c0.907,0.911,1.612,2.03,2.117,3.367c0.501,1.335,0.824,2.719,0.979,4.146   C141.307,491.619,141.383,493.258,141.383,495.114z M135.45,495.127c0-1.999-0.151-3.706-0.455-5.116   c-0.302-1.402-0.904-2.53-1.8-3.372c-0.9-0.844-2.182-1.257-3.846-1.257c-1.689,0-2.984,0.418-3.892,1.272   c-0.908,0.85-1.516,1.973-1.818,3.371c-0.302,1.402-0.454,3.103-0.454,5.102c0,2.007,0.151,3.711,0.454,5.117   c0.302,1.409,0.91,2.543,1.818,3.403s2.203,1.295,3.892,1.295c2.42,0,4.041-0.869,4.864-2.599   C135.039,500.616,135.45,498.21,135.45,495.127z"/>
	<path fill="#1E1E1C" d="M193.513,488.9v2.074c0,2.229-0.09,4.18-0.259,5.842c-0.169,1.665-0.562,3.307-1.178,4.912   c-0.618,1.612-1.54,3.029-2.772,4.26c-2.596,2.593-6.164,3.89-10.712,3.89h-14.554v-41.394h14.554   c4.548,0,8.116,1.298,10.712,3.888c1.232,1.232,2.154,2.609,2.772,4.146c0.616,1.536,1.009,3.095,1.178,4.686   s0.259,3.455,0.259,5.593V488.9z M187.237,488.91c0-2.38-0.04-4.219-0.111-5.515c-0.08-1.293-0.28-2.509-0.616-3.648   c-0.327-1.129-0.824-2.067-1.487-2.805c-1.702-1.868-4.054-2.805-7.042-2.805h-7.609v30.089h7.609c3.01,0,5.354-0.926,7.042-2.775   c0.983-1.081,1.599-2.546,1.844-4.399C187.116,495.202,187.237,492.483,187.237,488.91z"/>
	<path fill="#1E1E1C" d="M208.924,470.811c0,1.041-0.384,1.946-1.163,2.699c-0.774,0.756-1.674,1.136-2.697,1.136   c-1,0-1.894-0.386-2.67-1.169c-0.774-0.769-1.161-1.66-1.161-2.666c0-1.037,0.38-1.939,1.134-2.697   c0.757-0.756,1.658-1.136,2.697-1.136c1.063,0,1.97,0.373,2.727,1.11C208.55,468.822,208.924,469.733,208.924,470.811z    M208.045,509.878h-5.935V480.41h5.935V509.878z"/>
	<path fill="#1E1E1C" d="M239.962,509.704c0,2.429-0.511,4.57-1.52,6.437c-1.015,1.859-2.465,3.331-4.356,4.397   c-1.897,1.068-4.141,1.603-6.734,1.603c-1.512,0-2.854-0.124-4.028-0.381c-1.174-0.254-2.276-0.669-3.307-1.251   c-1.031-0.575-2.063-1.326-3.081-2.255l3.802-3.774c1.018,0.924,1.999,1.592,2.931,2.003c0.936,0.403,2.084,0.606,3.446,0.606   c2.341,0,4.079-0.709,5.21-2.13c1.135-1.418,1.703-3.204,1.703-5.364v-3.774c-1.022,1.211-2.146,2.07-3.374,2.586   c-1.231,0.504-2.646,0.767-4.251,0.767c-1.402,0-2.712-0.233-3.944-0.685c-1.228-0.46-2.257-1.098-3.089-1.932   c-1.322-1.322-2.201-2.935-2.637-4.828c-0.436-1.889-0.651-4.278-0.651-7.15c0-2.858,0.223-5.246,0.666-7.158   c0.446-1.912,1.321-3.517,2.625-4.824c0.811-0.814,1.822-1.446,3.033-1.887c1.206-0.445,2.559-0.67,4.054-0.67   c1.642,0,3.074,0.258,4.291,0.774c1.222,0.513,2.37,1.421,3.45,2.735v-3.139h5.762V509.704z M234.027,494.594   c0-2.839-0.395-5.081-1.177-6.735c-0.781-1.656-2.385-2.477-4.804-2.477c-2.43,0-4.051,0.816-4.842,2.462   c-0.791,1.642-1.188,3.895-1.188,6.75c0,2.851,0.397,5.101,1.188,6.755c0.792,1.654,2.412,2.479,4.842,2.479   c2.419,0,4.023-0.829,4.804-2.492C233.633,499.674,234.027,497.425,234.027,494.594z"/>
	<path fill="#1E1E1C" d="M256.196,470.811c0,1.041-0.387,1.946-1.161,2.699c-0.779,0.756-1.675,1.136-2.698,1.136   c-1.004,0-1.897-0.386-2.672-1.169c-0.774-0.769-1.162-1.66-1.162-2.666c0-1.037,0.381-1.939,1.138-2.697   c0.751-0.756,1.655-1.136,2.696-1.136c1.058,0,1.971,0.373,2.722,1.11C255.819,468.822,256.196,469.733,256.196,470.811z    M255.319,509.878h-5.935V480.41h5.935V509.878z"/>
	<path fill="#1E1E1C" d="M277.065,509.878h-3.55c-1.739,0-3.218-0.376-4.442-1.134c-1.223-0.76-2.133-1.755-2.737-2.997   c-0.608-1.239-0.911-2.595-0.911-4.07v-16.213h-3.349v-4.543h3.349v-8.947h5.934v8.947h5.707v4.543h-5.707v15.927   c0,2.293,1.088,3.435,3.265,3.435h2.441V509.878z"/>
	<path fill="#1E1E1C" d="M306.307,509.878h-5.818v-2.666c-1.081,1.077-2.207,1.852-3.376,2.312   c-1.173,0.464-2.661,0.697-4.458,0.697c-1.779,0-3.327-0.225-4.631-0.672c-1.304-0.439-2.402-1.11-3.294-1.997   c-1.552-1.605-2.326-3.724-2.326-6.329c0-1.689,0.388-3.166,1.162-4.448c0.778-1.274,1.926-2.271,3.454-2.977   c1.52-0.71,3.37-1.066,5.548-1.066h7.807v-2.098c0-1.881-0.509-3.269-1.535-4.154c-1.021-0.89-2.658-1.327-4.907-1.327   c-1.65,0-2.936,0.204-3.85,0.622c-0.921,0.413-1.793,1.15-2.628,2.204l-3.889-3.655c1.344-1.6,2.824-2.71,4.433-3.34   c1.606-0.632,3.659-0.944,6.162-0.944c8.097,0,12.147,3.38,12.147,10.138V509.878z M300.374,499.232v-2.383h-6.929   c-1.721,0-3.032,0.363-3.932,1.103c-0.896,0.741-1.346,1.791-1.346,3.155c0,2.781,1.792,4.171,5.393,4.171   c1.267,0,2.33-0.106,3.179-0.321c0.85-0.218,1.638-0.678,2.356-1.354C299.948,502.751,300.374,501.292,300.374,499.232z"/>
	<path fill="#1E1E1C" d="M326.975,509.878h-3.662c-2.647,0-4.655-0.764-6.017-2.301c-1.361-1.53-2.046-3.479-2.046-5.849v-33.244   h5.935v32.906c0,1.172,0.237,2.039,0.707,2.597c0.474,0.561,1.297,0.838,2.471,0.838h2.611V509.878z"/>
	<path fill="#1E1E1C" d="M374.62,509.878h-26.491v-41.394h26.491v5.653h-20.158v12.061h17.204v5.593h-17.204v12.436h20.158V509.878z   "/>
	<path fill="#1E1E1C" d="M405.79,509.878h-7.155l-6.161-10.047l-6.217,10.047h-7.155l10.107-15.043l-9.71-14.425h7.154l5.821,9.592   l5.765-9.592h7.156l-9.654,14.425L405.79,509.878z"/>
	<path fill="#1E1E1C" d="M435.913,495.114c0,1.855-0.075,3.503-0.227,4.939c-0.153,1.442-0.479,2.836-0.98,4.173   c-0.502,1.344-1.205,2.474-2.114,3.385c-0.818,0.812-1.847,1.452-3.096,1.912c-1.249,0.464-2.602,0.697-4.062,0.697   c-1.625,0-3.07-0.263-4.329-0.783c-1.259-0.519-2.386-1.375-3.39-2.567v14.932h-5.934V480.41h5.819v3.139   c1.08-1.314,2.228-2.223,3.449-2.735c1.219-0.517,2.663-0.774,4.328-0.774c1.476,0,2.857,0.237,4.134,0.714   c1.278,0.47,2.305,1.114,3.081,1.925c0.909,0.911,1.612,2.03,2.114,3.367c0.502,1.335,0.827,2.719,0.98,4.146   C435.838,491.619,435.913,493.258,435.913,495.114z M429.979,495.127c0-1.999-0.151-3.706-0.453-5.116   c-0.307-1.402-0.905-2.53-1.808-3.372c-0.895-0.844-2.179-1.257-3.842-1.257c-1.69,0-2.985,0.418-3.89,1.272   c-0.91,0.85-1.515,1.973-1.817,3.371c-0.308,1.402-0.454,3.103-0.454,5.102c0,2.007,0.146,3.711,0.454,5.117   c0.302,1.409,0.907,2.543,1.817,3.403c0.905,0.86,2.2,1.295,3.89,1.295c2.423,0,4.043-0.869,4.866-2.599   C429.561,500.616,429.979,498.21,429.979,495.127z"/>
	<path fill="#1E1E1C" d="M464.645,482.864l-4.484,4.474c-0.685-0.701-1.333-1.202-1.961-1.505c-0.621-0.303-1.436-0.451-2.438-0.451   c-1.06,0-2.042,0.271-2.937,0.816c-0.905,0.552-1.612,1.32-2.146,2.313c-0.531,0.988-0.794,2.147-0.794,3.475v17.892h-5.933V480.41   h5.815v3.199c0.776-1.089,1.872-1.954,3.283-2.601c1.406-0.643,2.927-0.97,4.556-0.97c1.448,0,2.737,0.216,3.848,0.645   C462.558,481.111,463.626,481.838,464.645,482.864z"/>
	<path fill="#1E1E1C" d="M492.951,496.85h-19.136c0,1.72,0.292,3.191,0.88,4.411s1.432,2.169,2.542,2.84   c1.106,0.67,2.474,1.008,4.104,1.008c1.623,0,2.941-0.229,3.942-0.682c1.004-0.454,2.074-1.229,3.208-2.326l3.776,3.519   c-1.608,1.607-3.239,2.779-4.89,3.506c-1.649,0.73-3.705,1.096-6.167,1.096c-1.894,0-3.655-0.277-5.273-0.825   c-1.619-0.552-3.027-1.419-4.222-2.611s-2.12-2.755-2.782-4.684c-0.667-1.93-0.999-4.26-0.999-6.986c0-3.16,0.519-5.868,1.55-8.118   c1.032-2.253,2.487-3.972,4.366-5.169c1.872-1.189,4.072-1.788,6.592-1.788c2.573,0,4.815,0.599,6.709,1.788   c1.894,1.197,3.336,2.864,4.32,5.01c0.987,2.151,1.479,4.616,1.479,7.399V496.85z M487.073,492.731   c-0.062-1.535-0.319-2.87-0.794-4.006c-0.473-1.136-1.218-2.045-2.226-2.721c-1.016-0.685-2.212-1.022-3.596-1.022   c-1.36,0-2.563,0.338-3.592,1.022c-1.031,0.676-1.793,1.585-2.284,2.721c-0.265,0.606-0.437,1.145-0.524,1.606   c-0.084,0.466-0.166,1.266-0.242,2.399H487.073z"/>
	<path fill="#1E1E1C" d="M522.62,500.879c0,2.011-0.522,3.709-1.564,5.109c-1.043,1.402-2.483,2.456-4.32,3.17   c-1.839,0.707-3.972,1.062-6.398,1.062c-1.759,0-3.354-0.124-4.788-0.372c-1.43-0.245-2.765-0.67-4.004-1.274   c-1.242-0.604-2.443-1.469-3.598-2.586l3.904-3.888c1.986,2.04,4.82,3.061,8.498,3.061c1.209,0,2.313-0.145,3.312-0.451   c0.989-0.303,1.764-0.756,2.31-1.36c0.552-0.606,0.827-1.353,0.827-2.242c0-2.122-1.314-3.281-3.944-3.493l-4.718-0.401   c-1.881-0.168-3.468-0.564-4.77-1.189c-1.297-0.624-2.292-1.514-2.96-2.669c-0.676-1.156-1.012-2.584-1.012-4.284   c0-2.784,1.059-4.984,3.168-6.604c2.118-1.621,4.764-2.427,7.945-2.427c4.758,0,8.41,1.106,10.942,3.323l-3.719,3.772   c-1.717-1.437-4.142-2.152-7.266-2.152c-1.742,0-3.07,0.338-3.988,1.022c-0.92,0.676-1.375,1.606-1.375,2.779   c0,1.986,1.362,3.105,4.085,3.349l4.656,0.426c1.841,0.153,3.414,0.549,4.728,1.19c1.314,0.645,2.32,1.564,3.011,2.755   C522.273,497.698,522.62,499.155,522.62,500.879z"/>
	<path fill="#1E1E1C" d="M551.634,500.879c0,2.011-0.522,3.709-1.56,5.109c-1.043,1.402-2.485,2.456-4.32,3.17   c-1.841,0.707-3.972,1.062-6.398,1.062c-1.766,0-3.361-0.124-4.788-0.372c-1.432-0.245-2.768-0.67-4.01-1.274   c-1.241-0.604-2.436-1.469-3.592-2.586l3.898-3.888c1.987,2.04,4.821,3.061,8.497,3.061c1.21,0,2.316-0.145,3.313-0.451   c0.995-0.303,1.763-0.756,2.315-1.36c0.548-0.606,0.82-1.353,0.82-2.242c0-2.122-1.314-3.281-3.942-3.493l-4.713-0.401   c-1.883-0.168-3.47-0.564-4.771-1.189c-1.3-0.624-2.288-1.514-2.964-2.669c-0.672-1.156-1.008-2.584-1.008-4.284   c0-2.784,1.056-4.984,3.17-6.604c2.111-1.621,4.759-2.427,7.947-2.427c4.749,0,8.401,1.106,10.941,3.323l-3.72,3.772   c-1.726-1.437-4.144-2.152-7.271-2.152c-1.738,0-3.067,0.338-3.984,1.022c-0.918,0.676-1.375,1.606-1.375,2.779   c0,1.986,1.36,3.105,4.087,3.349l4.654,0.426c1.837,0.153,3.416,0.549,4.728,1.19c1.316,0.645,2.315,1.564,3.009,2.755   C551.286,497.698,551.634,499.155,551.634,500.879z"/>
	<path fill="#1E1E1C" d="M565.657,470.811c0,1.041-0.386,1.946-1.163,2.699c-0.774,0.756-1.675,1.136-2.695,1.136   c-1.006,0-1.894-0.386-2.67-1.169c-0.777-0.769-1.163-1.66-1.163-2.666c0-1.037,0.38-1.939,1.134-2.697   c0.758-0.756,1.654-1.136,2.699-1.136c1.062,0,1.969,0.373,2.725,1.11C565.283,468.822,565.657,469.733,565.657,470.811z    M564.78,509.878h-5.935V480.41h5.935V509.878z"/>
	<path fill="#1E1E1C" d="M597.402,495.114c0,2.727-0.245,4.998-0.734,6.813c-0.495,1.822-1.417,3.42-2.756,4.8   c-2.232,2.33-5.18,3.493-8.832,3.493c-3.611,0-6.537-1.163-8.771-3.493c-1.325-1.38-2.24-2.985-2.742-4.812   c-0.504-1.829-0.751-4.09-0.751-6.802c0-2.649,0.256-4.9,0.766-6.758c0.513-1.852,1.419-3.464,2.728-4.826   c0.64-0.681,1.39-1.274,2.241-1.789c0.853-0.508,1.84-0.921,2.969-1.234c1.123-0.311,2.313-0.468,3.561-0.468   c1.952,0,3.661,0.321,5.141,0.97c1.472,0.636,2.706,1.486,3.691,2.521c1.322,1.383,2.235,2.989,2.732,4.812   C597.153,490.172,597.402,492.429,597.402,495.114z M591.466,495.127c0-1.924-0.132-3.544-0.395-4.858   c-0.267-1.313-0.814-2.387-1.646-3.218c-1.084-1.115-2.527-1.669-4.346-1.669c-1.762,0-3.201,0.554-4.314,1.669   c-0.812,0.831-1.354,1.904-1.62,3.218c-0.267,1.314-0.397,2.935-0.397,4.858c0,1.91,0.131,3.524,0.397,4.834   c0.267,1.316,0.808,2.392,1.62,3.221c1.17,1.169,2.607,1.761,4.314,1.761c1.759,0,3.208-0.592,4.346-1.761   c0.831-0.829,1.379-1.904,1.646-3.221C591.334,498.651,591.466,497.037,591.466,495.127z"/>
	<path fill="#1E1E1C" d="M629.339,509.878h-5.931V491.93c0-1.474-0.264-2.706-0.785-3.691c-0.518-0.979-1.228-1.704-2.113-2.166   c-0.889-0.46-1.9-0.69-3.036-0.69c-1.777,0-3.243,0.548-4.385,1.654c-1.145,1.108-1.718,2.735-1.718,4.894v17.948h-5.937V480.41   h5.821v2.971c0.984-1.085,2.169-1.914,3.546-2.489c1.384-0.569,2.815-0.853,4.291-0.853c3.006,0,5.429,0.902,7.268,2.697   c1.985,1.91,2.979,4.676,2.979,8.292V509.878z"/>
	<path fill="#1E1E1C" d="M678.065,505.312c-1.008,1.008-2.089,1.885-3.241,2.639c-1.154,0.754-2.403,1.318-3.745,1.696   c-1.346,0.384-2.867,0.573-4.574,0.573c-1.438,0-2.794-0.17-4.072-0.498c-1.278-0.327-2.503-0.835-3.676-1.521   c-1.17-0.676-2.215-1.474-3.128-2.381c-1.281-1.327-2.209-2.737-2.777-4.236c-0.567-1.49-0.918-3.115-1.052-4.864   c-0.133-1.749-0.198-4.262-0.198-7.536c0-2.52,0.032-4.514,0.1-5.989c0.066-1.48,0.218-2.834,0.455-4.064s0.621-2.378,1.167-3.447   c0.533-1.07,1.306-2.111,2.306-3.141c1.441-1.436,3.077-2.531,4.916-3.28c1.833-0.746,3.82-1.115,5.96-1.115   c2.481,0,4.612,0.403,6.4,1.211c1.791,0.809,3.513,2.041,5.16,3.697l-4.178,4.234c-1.234-1.236-2.376-2.122-3.432-2.673   c-1.061-0.548-2.377-0.822-3.951-0.822c-1.207,0-2.352,0.218-3.415,0.648c-1.075,0.44-1.979,1.05-2.713,1.841   c-0.55,0.609-0.966,1.207-1.251,1.791c-0.283,0.583-0.521,1.362-0.712,2.341c-0.188,0.968-0.316,2.118-0.382,3.455   c-0.065,1.329-0.101,3.103-0.101,5.313c0,4.134,0.153,7.039,0.464,8.71c0.317,1.671,0.974,3.067,1.981,4.182   c0.734,0.774,1.638,1.388,2.713,1.828c1.063,0.445,2.208,0.666,3.415,0.666c1.574,0,2.891-0.273,3.951-0.819   c1.056-0.552,2.197-1.441,3.432-2.672L678.065,505.312z"/>
	<path fill="#1E1E1C" d="M707.5,509.878h-5.817v-2.666c-1.075,1.077-2.206,1.852-3.378,2.312c-1.174,0.464-2.664,0.697-4.457,0.697   c-1.779,0-3.322-0.225-4.631-0.672c-1.304-0.439-2.401-1.11-3.298-1.997c-1.545-1.605-2.323-3.724-2.323-6.329   c0-1.689,0.39-3.166,1.167-4.448c0.776-1.274,1.925-2.271,3.446-2.977c1.524-0.71,3.37-1.066,5.558-1.066h7.801v-2.098   c0-1.881-0.509-3.269-1.53-4.154c-1.027-0.89-2.66-1.327-4.912-1.327c-1.646,0-2.932,0.204-3.849,0.622   c-0.922,0.413-1.795,1.15-2.628,2.204l-3.886-3.655c1.341-1.6,2.821-2.71,4.429-3.34c1.606-0.632,3.659-0.944,6.162-0.944   c8.097,0,12.146,3.38,12.146,10.138V509.878z M701.567,499.232v-2.383h-6.928c-1.72,0-3.031,0.363-3.928,1.103   c-0.9,0.741-1.35,1.791-1.35,3.155c0,2.781,1.795,4.171,5.393,4.171c1.266,0,2.33-0.106,3.181-0.321   c0.85-0.218,1.638-0.678,2.355-1.354C701.143,502.751,701.567,501.292,701.567,499.232z"/>
	<path fill="#1E1E1C" d="M758.466,509.878h-5.935V491.93c0-2.213-0.546-3.856-1.642-4.934c-1.096-1.081-2.521-1.614-4.278-1.614   c-1.7,0-3.141,0.539-4.32,1.64c-1.182,1.098-1.768,2.635-1.768,4.622v18.234h-5.935V491.93c0-1.474-0.263-2.706-0.789-3.691   c-0.515-0.979-1.216-1.704-2.108-2.166c-0.89-0.46-1.901-0.69-3.035-0.69c-1.778,0-3.245,0.548-4.388,1.654   c-1.144,1.108-1.715,2.735-1.715,4.894v17.948h-5.935V480.41h5.819v2.971c0.964-1.066,2.131-1.892,3.491-2.471   s2.809-0.871,4.341-0.871c3.71,0,6.504,1.442,8.376,4.339c2.366-2.896,5.452-4.339,9.258-4.339c3.104,0,5.584,0.902,7.438,2.697   c2.08,2.007,3.123,4.774,3.123,8.292V509.878z"/>
	<path fill="#1E1E1C" d="M791.737,495.114c0,1.855-0.079,3.503-0.225,4.939c-0.157,1.442-0.48,2.836-0.979,4.173   c-0.5,1.344-1.207,2.474-2.116,3.385c-0.815,0.812-1.846,1.452-3.097,1.912c-1.249,0.464-2.609,0.697-4.061,0.697   c-1.627,0-3.07-0.263-4.328-0.783c-1.26-0.519-2.396-1.375-3.391-2.567v14.932h-5.937V480.41h5.821v3.139   c1.081-1.314,2.229-2.223,3.447-2.735c1.222-0.517,2.668-0.774,4.335-0.774c1.474,0,2.851,0.237,4.129,0.714   c1.278,0.47,2.305,1.114,3.08,1.925c0.909,0.911,1.616,2.03,2.116,3.367c0.499,1.335,0.822,2.719,0.979,4.146   C791.658,491.619,791.737,493.258,791.737,495.114z M785.805,495.127c0-1.999-0.15-3.706-0.455-5.116   c-0.303-1.402-0.909-2.53-1.801-3.372c-0.901-0.844-2.184-1.257-3.847-1.257c-1.689,0-2.985,0.418-3.894,1.272   c-0.907,0.85-1.516,1.973-1.814,3.371c-0.306,1.402-0.453,3.103-0.453,5.102c0,2.007,0.147,3.711,0.453,5.117   c0.299,1.409,0.907,2.543,1.814,3.403c0.908,0.86,2.204,1.295,3.894,1.295c2.423,0,4.044-0.869,4.862-2.599   C785.39,500.616,785.805,498.21,785.805,495.127z"/>
	<path fill="#1E1E1C" d="M821.581,500.879c0,2.011-0.521,3.709-1.563,5.109c-1.044,1.402-2.484,2.456-4.32,3.17   c-1.84,0.707-3.971,1.062-6.399,1.062c-1.759,0-3.358-0.124-4.786-0.372c-1.432-0.245-2.767-0.67-4.008-1.274   c-1.244-0.604-2.439-1.469-3.596-2.586l3.898-3.888c1.992,2.04,4.824,3.061,8.502,3.061c1.211,0,2.317-0.145,3.309-0.451   c0.995-0.303,1.77-0.756,2.317-1.36c0.55-0.606,0.825-1.353,0.825-2.242c0-2.122-1.316-3.281-3.949-3.493l-4.715-0.401   c-1.876-0.168-3.468-0.564-4.77-1.189c-1.295-0.624-2.288-1.514-2.962-2.669c-0.674-1.156-1.008-2.584-1.008-4.284   c0-2.784,1.059-4.984,3.17-6.604c2.114-1.621,4.76-2.427,7.946-2.427c4.757,0,8.403,1.106,10.941,3.323l-3.72,3.772   c-1.72-1.437-4.14-2.152-7.266-2.152c-1.74,0-3.071,0.338-3.991,1.022c-0.915,0.676-1.375,1.606-1.375,2.779   c0,1.986,1.36,3.105,4.085,3.349l4.659,0.426c1.836,0.153,3.413,0.549,4.727,1.19c1.312,0.645,2.32,1.564,3.011,2.755   C821.234,497.698,821.581,499.155,821.581,500.879z"/>
</g>
</svg>